<?xml version="1.0" encoding="utf-8"?>
<!-- Generator: Adobe Illustrator 26.3.0, SVG Export Plug-In . SVG Version: 6.00 Build 0)  -->
<svg version="1.1" xmlns="http://www.w3.org/2000/svg" xmlns:xlink="http://www.w3.org/1999/xlink" x="0px" y="0px"
	 viewBox="0 0 2495.34 1042.78" style="enable-background:new 0 0 2495.34 1042.78;" xml:space="preserve">
<style type="text/css">
	.st0{display:none;}
	.st1{display:inline;}
	.st2{display:inline;stroke:#000000;stroke-miterlimit:10;}
	.st3{fill:#FFFFFF;}
</style>
<g id="Layer_3" class="st0">
	<rect x="-2.33" y="-6.73" class="st1" width="2500" height="1049.51"/>
	<g>
		<path class="st2" d="M2107.51,363.03v349.69c0,29.82-57.56,53.98-128.59,53.98H516.42c-71.02,0-128.59-24.17-128.59-53.98V363.03
			c0-29.82,57.56-53.98,128.59-53.98h1462.5C2049.94,309.05,2107.51,333.22,2107.51,363.03z"/>
		<ellipse class="st2" cx="516.42" cy="712.73" rx="128.59" ry="53.98"/>
		<ellipse class="st2" cx="1978.92" cy="363.03" rx="128.59" ry="53.98"/>
		<ellipse class="st2" cx="1978.92" cy="712.73" rx="128.59" ry="53.98"/>
		<ellipse class="st2" cx="516.42" cy="363.03" rx="128.59" ry="53.98"/>
	</g>
</g>
<g id="eyezagraphy_copy">
	<g>
		<g>
			<g>
				<path class="st3" d="M10.44,295.97c0,0-30.97-72.27,13.77-120.45S161.87,123.9,234.14,72.27S333.95,0,333.95,0h1517.72
					c0,0,6.88,34.42-48.18,79.16c-55.06,44.74-106.69,137.66-106.69,161.75s-58.51,51.62-103.25,13.77
					c-44.74-37.86-103.25-106.69-103.25-106.69s-89.48,110.13-99.8,185.84s41.3,158.31,82.6,189.28s37.86,86.04,68.83,134.22
					c30.97,48.18,106.69,34.42,154.87,72.27c48.18,37.86-79.16-68.83-65.39-103.25c13.77-34.42,124.45,48.18,220.53,61.95
					c96.09,13.77,189.01,3.44,226.87,3.44c37.86,0,24.09,36.68-30.97,45.87c-55.06,9.19-141.1,19.52-147.99,33.29
					c-6.88,13.77,110.13,17.21,165.19,0c55.06-17.21,141.1-20.65,199.61-10.32c58.51,10.32,172.08,61.95,203.05,110.13
					c30.97,48.18,27.53,86.04,27.53,86.04l0.11,86.04H0c0,0,17.33-92.92,51.74-178.96s34.42-141.1,68.83-178.96
					s165.19-13.77,209.93-17.21s44.74-24.09,44.74-24.09s-175.52-44.74-178.96-61.95c-3.44-17.21,24.09-58.92,79.16-79.36
					c55.06-20.44,72.27-23.88,96.36,19.14c24.09,43.02,48.18,87.76,113.57,84.32s86.04-61.95,106.69-84.32
					c9.23-10,66.69-59.89,66.69-59.89s107.46,15.11,127.73,30.07c21.24,15.68,38.24,55.07,38.24,55.07s-35.55,33.14-50.48,39.77
					c-26.35,11.71-79.73,46.84-112.65,58.71c-13.74,4.95-14.3,25.8-14.3,25.8s192.57-54.88,209.78-34.23
					c17.21,20.65,20.65,58.51-10.32,92.92c-30.97,34.42-82.6,58.51-48.18,65.39c34.42,6.88,58.51-89.48,113.57-82.6
					s55.06,6.88,55.06,6.88s-44.74-244.35-24.09-309.74c20.65-65.39,130.78-137.66,130.78-137.66s-209.93,41.3-227.14,13.77
					c-17.21-27.53,6.88-120.45-13.77-123.9c-20.65-3.44-234.02,144.54-302.85,165.19s-227.14,75.71-320.06,79.16
					c-92.92,3.44-192.73-6.88-196.17-58.51S10.44,295.97,10.44,295.97z"/>
			</g>
			<g>
				<path class="st3" d="M238.47,438.01c0,0,83.75-45.89,144.55-52.77c60.8-6.88,98.66-20.65,122.75-14.91s44.74,43.59,28.68,48.18
					s-103.25,2.29-139.96,9.18c-36.71,6.88-92.93,25.24-117.02,30.98S222.41,463.25,238.47,438.01z"/>
			</g>
			<g>
				<path class="st3" d="M387.09,461.5c0,0,20.02-14.31,48.7-14.31s53.92,3.38,53.92,14.31s1.15,29.28-25.24,40.76
					c-26.39,11.47-49.33,8.03-61.95-6.88C389.91,480.46,383.13,482.7,387.09,461.5z"/>
			</g>
			<g>
				<path class="st3" d="M1656.46,535.53c0,0,22.94-73.42,91.78-111.28s83.75-44.74,160.61-53.92s143.4,0,143.4,0
					s37.86,41.3,8.03,37.86c-29.83-3.44-128.49-34.42-217.97,16.06c-89.48,50.48-121.61,62.36-131.93,97.15
					c-10.33,34.78-32.12,49.7-47.04,46.26S1656.46,535.53,1656.46,535.53z"/>
			</g>
			<g>
				<path class="st3" d="M1913.44,448.34c0,0,8.03-18.36,42.45-18.36c34.42,0,66.54-8.03,80.31,0c13.77,8.03,18.36,19.35,0,37.21
					s-63.1,68.75-97.52,54.2C1904.26,506.85,1893.93,474.72,1913.44,448.34z"/>
			</g>
			<g>
				<path class="st3" d="M1733.32,536.67c5.74-5.74,42.45-49.54,78.01-61.48c35.56-11.94,56.21-38.33,65.39-13.09
					c9.18,25.24-3.65,94.27,39.01,115.87c28.14,14.25,89.67,44.74,160.61,13.77c56.29-24.58,47.04-82.6,75.72-95.22
					c28.68-12.62,53.92-25.24,82.6-14.91c28.68,10.33,59.66,26.39,32.12,73.42c-27.53,47.04-106.69,103.25-152.58,108.99
					c-45.89,5.74-178.97,6.88-215.68-8.03c-36.71-14.91-86.04-45.89-105.55-59.66C1773.48,582.56,1733.32,536.67,1733.32,536.67z"/>
			</g>
			<g>
				<path class="st3" d="M1811.33,265.93c0,0,121.61-130.78,176.67-144.55c55.07-13.77,128.49-39.01,217.97,0
					c89.48,39.01,128.49,73.42,153.73,105.55c25.24,32.12,9.18,68.83-59.66,73.42c-68.83,4.59-273.04-16.06-334.99,0
					c-61.95,16.06-123.9,55.07-153.73,20.65C1781.51,286.58,1798.93,278.93,1811.33,265.93z"/>
			</g>
			<g>
				<path class="st3" d="M2121.09,692.7c-11.47,0-35.56,53.92,0,51.63c35.56-2.29,95.22,3.44,136.52-4.59
					c24.58-4.78,54.81-2.06,78.01-6.88c15.78-3.28,27.37-13,35.35-19.5c19.72-16.06-12.41-55.07-45.68-55.07
					s-65.01,33.27-130.78,28.68c-19.5,0.94-19.16-5.6-44.74-4.59C2129.39,683.17,2121.09,692.7,2121.09,692.7z"/>
			</g>
		</g>
	</g>
</g>
</svg>
